<svg xmlns="http://www.w3.org/2000/svg" viewBox="0 0 64 64" role="img" aria-label="dashX360 icon">
  <defs>
    <linearGradient id="g" x1="0" y1="0" x2="1" y2="1">
      <stop offset="0%" stop-color="#3ecf3e" />
      <stop offset="100%" stop-color="#0b7d0b" />
    </linearGradient>
  </defs>
  <rect width="64" height="64" rx="14" fill="#111" />
  <path d="M32 9c12.7 0 23 10.3 23 23S44.7 55 32 55 9 44.7 9 32 19.3 9 32 9zm0 6C22.6 15 15 22.6 15 32s7.6 17 17 17 17-7.6 17-17-7.6-17-17-17z" fill="url(#g)"/>
  <path d="M16 25h32v14H16z" fill="#1a1a1a"/>
  <path d="M20 29h10v6H20zM34 29h10v6H34z" fill="#e9fbe9"/>
</svg>
